<svg width="464.84752197265624px" height="116.007470703125px" xmlns="http://www.w3.org/2000/svg" viewBox="17.57623901367188 16.996264648437503 464.84752197265624 116.007470703125" style="background: rgba(0, 0, 0, 0);" preserveAspectRatio="xMidYMid"><defs><linearGradient id="editing-outline-gradient" x1="-0.5" x2="1.5" y1="0.5" y2="0.5"><stop offset="0" stop-color="#eeeeee"></stop><stop offset="1" stop-color="#ffffff"></stop></linearGradient><filter id="editing-outline" x="-100%" y="-100%" width="300%" height="300%"><feMorphology in="SourceGraphic" operator="dilate" radius="1" result="outline"></feMorphology><feComposite operator="out" in="outline" in2="SourceAlpha"></feComposite></filter></defs><g filter="url(#editing-outline)"><g transform="translate(87.98498964309692, 98.38999938964844)"><path d="M31.36-15.87L10.88-15.87L4.29 0L1.02 0L20.29-46.08L22.08-46.08L41.41 0L37.95 0L31.36-15.87ZM20.99-40.96L20.99-40.96L20.99-40.96Q20.93-40.90 20.74-40.19L20.74-40.19L20.74-40.19Q19.84-37.44 19.01-35.52L19.01-35.52L11.97-18.50L30.27-18.50L23.23-35.46L23.23-35.46Q20.99-40.32 20.99-40.96ZM50.05-0.13L50.05-41.34L50.05-41.34Q54.59-41.73 59.39-41.73L59.39-41.73L59.39-41.73Q64.19-41.73 67.62-39.42L67.62-39.42L67.62-39.42Q71.04-37.12 71.04-32.70L71.04-32.70L71.04-32.70Q71.04-29.38 69.25-26.56L69.25-26.56L69.25-26.56Q67.46-23.74 64.90-22.27L64.90-22.27L64.90-22.27Q69.06-21.06 71.81-17.92L71.81-17.92L71.81-17.92Q74.56-14.78 74.56-10.82L74.56-10.82L74.56-10.82Q74.56-5.31 71.07-2.50L71.07-2.50L71.07-2.50Q67.58 0.32 61.25 0.32L61.25 0.32L61.25 0.32Q54.91 0.32 50.05-0.13L50.05-0.13ZM55.87-20.99L55.87-20.99L52.99-20.93L52.99-2.56L52.99-2.56Q55.74-2.30 61.89-2.30L61.89-2.30L61.89-2.30Q66.05-2.30 68.77-4.64L68.77-4.64L68.77-4.64Q71.49-6.98 71.49-10.53L71.49-10.53L71.49-10.53Q71.49-14.08 68.77-16.74L68.77-16.74L68.77-16.74Q66.05-19.39 61.70-20.48L61.70-20.48L61.70-20.48Q59.46-20.99 55.87-20.99ZM68.16-32.77L68.16-32.77L68.16-32.77Q68.16-35.90 65.54-37.60L65.54-37.60L65.54-37.60Q62.91-39.30 59.26-39.30L59.26-39.30L59.26-39.30Q55.62-39.30 52.99-39.10L52.99-39.10L52.99-23.42L52.99-23.42Q58.56-23.42 61.89-23.10L61.89-23.10L61.89-23.10Q64.38-24.45 66.27-27.04L66.27-27.04L66.27-27.04Q68.16-29.63 68.16-32.77ZM104.19 0.64L104.19 0.64L104.19 0.64Q95.30 0.64 89.28-5.57L89.28-5.57L89.28-5.57Q83.26-11.78 83.26-20.77L83.26-20.77L83.26-20.77Q83.26-29.76 89.28-35.97L89.28-35.97L89.28-35.97Q95.30-42.18 104.19-42.18L104.19-42.18L104.19-42.18Q113.09-42.18 119.10-35.97L119.10-35.97L119.10-35.97Q125.12-29.76 125.12-20.77L125.12-20.77L125.12-20.77Q125.12-11.78 119.10-5.57L119.10-5.57L119.10-5.57Q113.09 0.64 104.19 0.64ZM104.22-39.55L104.22-39.55L104.22-39.55Q96.51-39.55 91.42-34.11L91.42-34.11L91.42-34.11Q86.34-28.67 86.34-20.77L86.34-20.77L86.34-20.77Q86.34-12.86 91.42-7.46L91.42-7.46L91.42-7.46Q96.51-2.05 104.22-2.05L104.22-2.05L104.22-2.05Q111.94-2.05 116.99-7.46L116.99-7.46L116.99-7.46Q122.05-12.86 122.05-20.77L122.05-20.77L122.05-20.77Q122.05-28.67 116.99-34.11L116.99-34.11L116.99-34.11Q111.94-39.55 104.22-39.55ZM167.49-4.29L167.49-4.29L167.49-4.29Q163.26 0.64 154.62 0.64L154.62 0.64L154.62 0.64Q145.98 0.64 141.76-4.29L141.76-4.29L141.76-4.29Q137.54-9.22 137.54-17.92L137.54-17.92L137.54-41.54L140.48-41.54L140.48-17.92L140.48-17.92Q140.48-1.98 154.62-1.98L154.62-1.98L154.62-1.98Q168.77-1.98 168.77-17.92L168.77-17.92L168.77-41.54L171.71-41.54L171.71-17.92L171.71-17.92Q171.71-9.22 167.49-4.29ZM194.11 0L194.11-38.91L180.03-38.91L180.03-41.54L211.07-41.54L211.07-38.91L196.99-38.91L196.99 0L194.11 0ZM280.32-34.69L265.22-2.37L263.49-2.37L250.11-34.75L250.11-34.75Q248.96-37.44 248.26-39.49L248.26-39.49L247.62-34.62L242.37 0L239.23 0L246.78-46.14L248.58-46.14L262.85-12.22L262.85-12.22Q263.94-9.86 264.58-7.74L264.58-7.74L264.58-7.74Q264.77-8.45 266.56-12.16L266.56-12.16L282.50-46.14L284.22-46.14L291.20 0L288 0L283.01-34.75L283.01-34.75Q282.50-38.02 282.50-39.68L282.50-39.68L282.50-39.68Q282.43-39.62 282.21-39.07L282.21-39.07L282.21-39.07Q281.98-38.53 281.44-37.28L281.44-37.28L281.44-37.28Q280.90-36.03 280.32-34.69L280.32-34.69ZM323.01 0L302.98 0L302.98-41.54L322.37-41.54L322.37-38.98L305.92-38.98L305.92-23.87L320.77-23.87L320.77-21.38L305.92-21.38L305.92-2.69L323.01-2.69L323.01 0Z" fill="url(#editing-outline-gradient)"></path></g></g><style>text {
  font-size: 64px;
  font-family: Arial Black;
  dominant-baseline: central;
  text-anchor: middle;
}</style></svg>