<svg width="568.1225219726563px" height="143.63251953125px" xmlns="http://www.w3.org/2000/svg" viewBox="-34.061260986328136 3.1837402343749943 568.1225219726563 143.63251953125" style="background: rgba(0, 0, 0, 0);" preserveAspectRatio="xMidYMid"><defs><linearGradient id="editing-outline-gradient" x1="-0.41354545764260087" x2="1.4135454576426008" y1="0.09326335692419985" y2="0.9067366430758002"><stop offset="0" stop-color="#ee4208"></stop><stop offset="1" stop-color="#4139ff"></stop></linearGradient><filter id="editing-outline" x="-100%" y="-100%" width="300%" height="300%"><feMorphology in="SourceGraphic" operator="dilate" radius="1" result="outline"></feMorphology><feComposite operator="out" in="outline" in2="SourceAlpha"></feComposite></filter></defs><g filter="url(#editing-outline)"><g transform="translate(49.48500061035156, 99.34499931335449)"><path d="M59 0L53-11L15-11L9 0L2 0L30-48L38-48L66 0L59 0ZM18-16L50-16L34-44L18-16ZM94 0.69L94 0.69L94 0.69Q89.69 0.69 86.83 0.11L86.83 0.11L86.83 0.11Q83.97-0.47 82.16-1.14L82.16-1.14L82.16-1.14Q80.34-1.81 79.41-3.27L79.41-3.27L79.41-3.27Q78.47-4.72 78-5.53L78-5.53L78 0L72 0L72-48L78-48L78-32.59L78-32.59Q78.41-33.25 79.36-34.02L79.36-34.02L79.36-34.02Q80.31-34.78 82.14-35.45L82.14-35.45L82.14-35.45Q83.97-36.13 86.84-36.56L86.84-36.56L86.84-36.56Q89.72-37 94-37L94-37L94-37Q100-37 104.19-36.09L104.19-36.09L104.19-36.09Q108.38-35.19 111-33L111-33L111-33Q113.63-30.81 114.81-27.14L114.81-27.14L114.81-27.14Q116-23.47 116-17.94L116-17.94L116-17.94Q116-12.50 114.81-8.91L114.81-8.91L114.81-8.91Q113.63-5.31 111-3.19L111-3.19L111-3.19Q108.38-1.06 104.19-0.19L104.19-0.19L104.19-0.19Q100 0.69 94 0.69ZM94-4L94-4L94-4Q97.50-4 100.05-4.22L100.05-4.22L100.05-4.22Q102.59-4.44 104.38-5L104.38-5L104.38-5Q106.16-5.56 107.27-6.56L107.27-6.56L107.27-6.56Q108.38-7.56 108.98-9.11L108.98-9.11L108.98-9.11Q109.59-10.66 109.80-12.83L109.80-12.83L109.80-12.83Q110-15 110-17.94L110-17.94L110-17.94Q110-20.88 109.80-23.06L109.80-23.06L109.80-23.06Q109.59-25.25 108.98-26.80L108.98-26.80L108.98-26.80Q108.38-28.34 107.27-29.36L107.27-29.36L107.27-29.36Q106.16-30.38 104.38-30.95L104.38-30.95L104.38-30.95Q102.59-31.53 100.05-31.75L100.05-31.75L100.05-31.75Q97.50-31.97 94-31.97L94-31.97L94-31.97Q91-31.97 88.66-31.83L88.66-31.83L88.66-31.83Q86.31-31.69 84.53-31.19L84.53-31.19L84.53-31.19Q82.75-30.69 81.52-29.75L81.52-29.75L81.52-29.75Q80.28-28.81 79.50-27.25L79.50-27.25L79.50-27.25Q78.72-25.69 78.36-23.38L78.36-23.38L78.36-23.38Q78-21.06 78-17.84L78-17.84L78-17.84Q78-14.66 78.36-12.39L78.36-12.39L78.36-12.39Q78.72-10.13 79.50-8.59L79.50-8.59L79.50-8.59Q80.28-7.06 81.52-6.14L81.52-6.14L81.52-6.14Q82.75-5.22 84.53-4.75L84.53-4.75L84.53-4.75Q86.31-4.28 88.66-4.14L88.66-4.14L88.66-4.14Q91-4 94-4ZM122-18.25L122-18.25L122-18.25Q122-23.78 123.19-27.41L123.19-27.41L123.19-27.41Q124.38-31.03 127-33.16L127-33.16L127-33.16Q129.63-35.28 133.81-36.14L133.81-36.14L133.81-36.14Q138-37 144-37L144-37L144-37Q150-37 154.19-36.14L154.19-36.14L154.19-36.14Q158.38-35.28 161-33.16L161-33.16L161-33.16Q163.63-31.03 164.81-27.41L164.81-27.41L164.81-27.41Q166-23.78 166-18.25L166-18.25L166-18.25Q166-12.72 164.81-9.06L164.81-9.06L164.81-9.06Q163.63-5.41 161-3.25L161-3.25L161-3.25Q158.38-1.09 154.19-0.20L154.19-0.20L154.19-0.20Q150 0.69 144 0.69L144 0.69L144 0.69Q138 0.69 133.81-0.20L133.81-0.20L133.81-0.20Q129.63-1.09 127-3.25L127-3.25L127-3.25Q124.38-5.41 123.19-9.06L123.19-9.06L123.19-9.06Q122-12.72 122-18.25ZM128-18.25L128-18.25L128-18.25Q128-15.25 128.22-13.03L128.22-13.03L128.22-13.03Q128.44-10.81 129.05-9.22L129.05-9.22L129.05-9.22Q129.66-7.63 130.75-6.63L130.75-6.63L130.75-6.63Q131.84-5.63 133.63-5.03L133.63-5.03L133.63-5.03Q135.41-4.44 137.95-4.22L137.95-4.22L137.95-4.22Q140.50-4 144-4L144-4L144-4Q147-4 149.36-4.14L149.36-4.14L149.36-4.14Q151.72-4.28 153.48-4.78L153.48-4.78L153.48-4.78Q155.25-5.28 156.50-6.20L156.50-6.20L156.50-6.20Q157.75-7.13 158.52-8.72L158.52-8.72L158.52-8.72Q159.28-10.31 159.64-12.64L159.64-12.64L159.64-12.64Q160-14.97 160-18.25L160-18.25L160-18.25Q160-21.47 159.64-23.73L159.64-23.73L159.64-23.73Q159.28-26 158.52-27.53L158.52-27.53L158.52-27.53Q157.75-29.06 156.50-29.95L156.50-29.95L156.50-29.95Q155.25-30.84 153.48-31.30L153.48-31.30L153.48-31.30Q151.72-31.75 149.36-31.88L149.36-31.88L149.36-31.88Q147-32 144-32L144-32L144-32Q141-32 138.64-31.88L138.64-31.88L138.64-31.88Q136.28-31.75 134.52-31.30L134.52-31.30L134.52-31.30Q132.75-30.84 131.50-29.95L131.50-29.95L131.50-29.95Q130.25-29.06 129.48-27.53L129.48-27.53L129.48-27.53Q128.72-26 128.36-23.73L128.36-23.73L128.36-23.73Q128-21.47 128-18.25ZM173.03-36L179.03-36L179.03-16L179.03-16Q179.03-12.66 179.53-10.36L179.53-10.36L179.53-10.36Q180.03-8.06 181.53-6.66L181.53-6.66L181.53-6.66Q183.03-5.25 185.78-4.63L185.78-4.63L185.78-4.63Q188.53-4 193.03-4L193.03-4L193.03-4Q197.91-4 201.02-4.72L201.02-4.72L201.02-4.72Q204.13-5.44 205.91-6.75L205.91-6.75L205.91-6.75Q207.69-8.06 208.36-9.91L208.36-9.91L208.36-9.91Q209.03-11.75 209.03-14L209.03-14L209.03-36L215.03-36L215.03 0L209.03 0L209.03-6L209.03-6Q208.59-5.03 207.56-3.86L207.56-3.86L207.56-3.86Q206.53-2.69 204.47-1.69L204.47-1.69L204.47-1.69Q202.41-0.69 199.14 0L199.14 0L199.14 0Q195.88 0.69 191.03 0.69L191.03 0.69L191.03 0.69Q187 0.69 184.11 0.20L184.11 0.20L184.11 0.20Q181.22-0.28 179.20-1.23L179.20-1.23L179.20-1.23Q177.19-2.19 175.97-3.59L175.97-3.59L175.97-3.59Q174.75-5 174.09-6.86L174.09-6.86L174.09-6.86Q173.44-8.72 173.22-11L173.22-11L173.22-11Q173-13.28 173-16L173-16L173.03-36ZM253.03-16L258.03-16L258.03-16Q258.03-11.41 257.28-8.33L257.28-8.33L257.28-8.33Q256.53-5.25 254.77-3.41L254.77-3.41L254.77-3.41Q253-1.56 250.13-0.78L250.13-0.78L250.13-0.78Q247.25 0 243.03 0L243.03 0L243.03 0Q238.94 0 236.16-0.63L236.16-0.63L236.16-0.63Q233.38-1.25 231.66-2.75L231.66-2.75L231.66-2.75Q229.94-4.25 229.19-6.75L229.19-6.75L229.19-6.75Q228.44-9.25 228.44-13L228.44-13L228.44-31.06L221.03-31.06L221.03-36L228.44-36L228.44-45.84L234.44-45.84L234.44-36L257.03-36L257.03-31.06L234.44-31.06L234.44-13L234.44-13Q234.44-10 234.89-8.38L234.89-8.38L234.89-8.38Q235.34-6.75 236.34-6L236.34-6L236.34-6Q237.34-5.25 238.98-5.13L238.98-5.13L238.98-5.13Q240.63-5 243-5L243-5L243-5Q244.88-5 246.36-5.06L246.36-5.06L246.36-5.06Q247.84-5.13 248.95-5.45L248.95-5.45L248.95-5.45Q250.06-5.78 250.84-6.45L250.84-6.45L250.84-6.45Q251.63-7.13 252.11-8.34L252.11-8.34L252.11-8.34Q252.59-9.56 252.81-11.42L252.81-11.42L252.81-11.42Q253.03-13.28 253.03-16L253.03-16ZM318.03-22.31L318.03 0L312.03 0L312.03-20.31L312.03-20.31Q312.03-23.56 311.61-25.80L311.61-25.80L311.61-25.80Q311.19-28.03 309.89-29.41L309.89-29.41L309.89-29.41Q308.59-30.78 306.23-31.39L306.23-31.39L306.23-31.39Q303.88-32 300.03-32L300.03-32L300.03-32Q295.81-32 293.09-31.30L293.09-31.30L293.09-31.30Q290.38-30.59 288.81-29.33L288.81-29.33L288.81-29.33Q287.25-28.06 286.64-26.28L286.64-26.28L286.64-26.28Q286.03-24.50 286.03-22.31L286.03-22.31L286.03 0L280.03 0L280.03-36L286.03-36L286.03-30.31L286.03-30.31Q286.06-30.41 286.31-30.94L286.31-30.94L286.31-30.94Q286.56-31.47 287.20-32.20L287.20-32.20L287.20-32.20Q287.84-32.94 288.95-33.78L288.95-33.78L288.95-33.78Q290.06-34.63 291.83-35.34L291.83-35.34L291.83-35.34Q293.59-36.06 296.09-36.53L296.09-36.53L296.09-36.53Q298.59-37 302.03-37L302.03-37L302.03-37Q305.41-37 307.89-36.58L307.89-36.58L307.89-36.58Q310.38-36.16 312.14-35.33L312.14-35.33L312.14-35.33Q313.91-34.50 315.02-33.27L315.02-33.27L315.02-33.27Q316.13-32.03 316.78-30.44L316.78-30.44L316.78-30.44Q317.31-31.28 318.44-32.41L318.44-32.41L318.44-32.41Q319.56-33.53 321.58-34.56L321.58-34.56L321.58-34.56Q323.59-35.59 326.63-36.30L326.63-36.30L326.63-36.30Q329.66-37 334.03-37L334.03-37L334.03-37Q337.63-37 340.20-36.52L340.20-36.52L340.20-36.52Q342.78-36.03 344.56-35.08L344.56-35.08L344.56-35.08Q346.34-34.13 347.42-32.72L347.42-32.72L347.42-32.72Q348.50-31.31 349.08-29.45L349.08-29.45L349.08-29.45Q349.66-27.59 349.84-25.30L349.84-25.30L349.84-25.30Q350.03-23 350.03-20.31L350.03-20.31L350.03 0L344.03 0L344.03-20.31L344.03-20.31Q344.03-23.56 343.61-25.80L343.61-25.80L343.61-25.80Q343.19-28.03 341.89-29.41L341.89-29.41L341.89-29.41Q340.59-30.78 338.23-31.39L338.23-31.39L338.23-31.39Q335.88-32 332.03-32L332.03-32L332.03-32Q327.81-32 325.09-31.30L325.09-31.30L325.09-31.30Q322.38-30.59 320.81-29.33L320.81-29.33L320.81-29.33Q319.25-28.06 318.64-26.28L318.64-26.28L318.64-26.28Q318.03-24.50 318.03-22.31L318.03-22.31ZM379.03 0.69L379.03 0.69L379.03 0.69Q373.03 0.69 368.84-0.14L368.84-0.14L368.84-0.14Q364.66-0.97 362.03-3L362.03-3L362.03-3Q359.41-5.03 358.22-8.44L358.22-8.44L358.22-8.44Q357.03-11.84 357.03-17L357.03-17L357.03-17Q357.03-22.91 358.22-26.77L358.22-26.77L358.22-26.77Q359.41-30.63 362.03-32.91L362.03-32.91L362.03-32.91Q364.66-35.19 368.84-36.09L368.84-36.09L368.84-36.09Q373.03-37 379.03-37L379.03-37L379.03-37Q383.31-37 386.45-36.38L386.45-36.38L386.45-36.38Q389.59-35.75 391.83-34.56L391.83-34.56L391.83-34.56Q394.06-33.38 395.45-31.69L395.45-31.69L395.45-31.69Q396.84-30 397.64-28.14L397.64-28.14L397.64-28.14Q398.44-26.28 398.73-23.78L398.73-23.78L398.73-23.78Q399.03-21.28 399.03-18.50L399.03-18.50L398.53-16.50L363.03-16.50L363.03-16.50Q363.03-12.38 363.84-9.73L363.84-9.73L363.84-9.73Q364.66-7.09 366.53-5.88L366.53-5.88L366.53-5.88Q368.41-4.66 371.47-4.33L371.47-4.33L371.47-4.33Q374.53-4 379.03-4L379.03-4L379.03-4Q383.16-4 385.86-4.23L385.86-4.23L385.86-4.23Q388.56-4.47 390.16-5.13L390.16-5.13L390.16-5.13Q391.75-5.78 392.39-6.95L392.39-6.95L392.39-6.95Q393.03-8.13 393.03-10L393.03-10L399.03-10L399.03-10Q399.03-7.09 398.02-5.05L398.02-5.05L398.02-5.05Q397-3 394.66-1.73L394.66-1.73L394.66-1.73Q392.31-0.47 388.48 0.11L388.48 0.11L388.48 0.11Q384.66 0.69 379.03 0.69ZM379.03-32L379.03-32L379.03-32Q376.03-32 373.67-31.88L373.67-31.88L373.67-31.88Q371.31-31.75 369.55-31.33L369.55-31.33L369.55-31.33Q367.78-30.91 366.53-30.11L366.53-30.11L366.53-30.11Q365.28-29.31 364.52-28.23L364.52-28.23L364.52-28.23Q363.75-27.16 363.39-25.20L363.39-25.20L363.39-25.20Q363.03-23.25 363.03-20.50L363.03-20.50L393.03-20.50L393.03-20.50Q393.03-24.16 392.25-26.23L392.25-26.23L392.25-26.23Q391.47-28.31 389.78-29.66L389.78-29.66L389.78-29.66Q388.09-31 385.44-31.50L385.44-31.50L385.44-31.50Q382.78-32 379.03-32Z" fill="url(#editing-outline-gradient)"></path></g></g><style>text {
  font-size: 64px;
  font-family: Arial Black;
  dominant-baseline: central;
  text-anchor: middle;
}</style></svg>