<svg width="417.5874877929687px" height="116.007470703125px" xmlns="http://www.w3.org/2000/svg" viewBox="41.20625610351564 16.996264648437503 417.5874877929687 116.007470703125" style="background: rgba(0, 0, 0, 0);" preserveAspectRatio="xMidYMid"><defs><linearGradient id="editing-outline-gradient" x1="-0.5" x2="1.5" y1="0.5" y2="0.5"><stop offset="0" stop-color="#eeeeee"></stop><stop offset="1" stop-color="#ffffff"></stop></linearGradient><filter id="editing-outline" x="-100%" y="-100%" width="300%" height="300%"><feMorphology in="SourceGraphic" operator="dilate" radius="1" result="outline"></feMorphology><feComposite operator="out" in="outline" in2="SourceAlpha"></feComposite></filter></defs><g filter="url(#editing-outline)"><g transform="translate(101.45501136779785, 98.64999961853027)"><path d="M30.08 0.77L30.08 0.77L30.08 0.77Q20.10 0.77 12.93-6.05L12.93-6.05L12.93-6.05Q5.76-12.86 5.76-22.88L5.76-22.88L5.76-22.88Q5.76-32.90 12.03-39.71L12.03-39.71L12.03-39.71Q18.30-46.53 28.10-46.53L28.10-46.53L28.10-46.53Q35.78-46.53 43.65-43.97L43.65-43.97L42.82-41.41L42.82-41.41Q35.14-43.71 28.10-43.71L28.10-43.71L28.10-43.71Q19.71-43.71 14.40-37.70L14.40-37.70L14.40-37.70Q9.09-31.68 9.09-22.98L9.09-22.98L9.09-22.98Q9.09-14.27 15.26-8.16L15.26-8.16L15.26-8.16Q21.44-2.05 30.08-2.05L30.08-2.05L30.08-2.05Q37.63-2.05 43.14-4.35L43.14-4.35L44.10-2.18L44.10-2.18Q41.66-0.77 37.73 0L37.73 0L37.73 0Q33.79 0.77 30.08 0.77ZM72.96 0.64L72.96 0.64L72.96 0.64Q64.06 0.64 58.05-5.57L58.05-5.57L58.05-5.57Q52.03-11.78 52.03-20.77L52.03-20.77L52.03-20.77Q52.03-29.76 58.05-35.97L58.05-35.97L58.05-35.97Q64.06-42.18 72.96-42.18L72.96-42.18L72.96-42.18Q81.86-42.18 87.87-35.97L87.87-35.97L87.87-35.97Q93.89-29.76 93.89-20.77L93.89-20.77L93.89-20.77Q93.89-11.78 87.87-5.57L87.87-5.57L87.87-5.57Q81.86 0.64 72.96 0.64ZM72.99-39.55L72.99-39.55L72.99-39.55Q65.28-39.55 60.19-34.11L60.19-34.11L60.19-34.11Q55.10-28.67 55.10-20.77L55.10-20.77L55.10-20.77Q55.10-12.86 60.19-7.46L60.19-7.46L60.19-7.46Q65.28-2.05 72.99-2.05L72.99-2.05L72.99-2.05Q80.70-2.05 85.76-7.46L85.76-7.46L85.76-7.46Q90.82-12.86 90.82-20.77L90.82-20.77L90.82-20.77Q90.82-28.67 85.76-34.11L85.76-34.11L85.76-34.11Q80.70-39.55 72.99-39.55ZM109.63 0L106.69 0L106.69-41.79L108.10-41.79L135.36-10.43L135.36-10.43Q136.83-8.77 138.08-7.14L138.08-7.14L138.08-7.14Q139.33-5.50 139.39-5.44L139.39-5.44L139.39-5.44Q139.26-6.98 139.26-11.46L139.26-11.46L139.26-41.54L142.21-41.54L142.21 0.26L140.80 0.26L113.02-31.62L109.50-35.90L109.50-35.90Q109.63-34.62 109.63-29.89L109.63-29.89L109.63 0ZM164.99 0L164.99-38.91L150.91-38.91L150.91-41.54L181.95-41.54L181.95-38.91L167.87-38.91L167.87 0L164.99 0ZM207.17-14.40L188.74-14.40L182.78 0L179.78 0L197.18-41.79L198.91-41.79L216.45 0L213.18 0L207.17-14.40ZM197.89-37.06L197.89-37.06L197.89-37.06Q196.93-34.18 196.16-32.26L196.16-32.26L189.76-16.90L206.14-16.90L199.81-32.19L199.81-32.19Q198.34-35.78 197.89-37.06ZM255.49-4.10L256.45-2.05L256.45-2.05Q251.65 0.64 243.10 0.64L243.10 0.64L243.10 0.64Q234.56 0.64 228.06-5.50L228.06-5.50L228.06-5.50Q221.57-11.65 221.57-20.77L221.57-20.77L221.57-20.77Q221.57-29.89 227.23-36.03L227.23-36.03L227.23-36.03Q232.90-42.18 241.86-42.18L241.86-42.18L241.86-42.18Q249.09-42.18 256-39.94L256-39.94L255.23-37.50L255.23-37.50Q248.58-39.55 241.47-39.55L241.47-39.55L241.47-39.55Q234.37-39.55 229.54-34.14L229.54-34.14L229.54-34.14Q224.70-28.74 224.70-20.90L224.70-20.90L224.70-20.90Q224.70-13.06 230.30-7.55L230.30-7.55L230.30-7.55Q235.90-2.05 243.26-2.05L243.26-2.05L243.26-2.05Q250.62-2.05 255.49-4.10L255.49-4.10ZM274.37 0L274.37-38.91L260.29-38.91L260.29-41.54L291.33-41.54L291.33-38.91L277.25-38.91L277.25 0L274.37 0Z" fill="url(#editing-outline-gradient)"></path></g></g><style>text {
  font-size: 64px;
  font-family: Arial Black;
  dominant-baseline: central;
  text-anchor: middle;
}</style></svg>