<svg width="405.7724975585937px" height="116.007470703125px" xmlns="http://www.w3.org/2000/svg" viewBox="47.113751220703136 16.996264648437503 405.7724975585937 116.007470703125" style="background: rgba(0, 0, 0, 0);" preserveAspectRatio="xMidYMid"><defs><linearGradient id="editing-outline-gradient" x1="-0.5" x2="1.5" y1="0.5" y2="0.5"><stop offset="0" stop-color="#eeeeee"></stop><stop offset="1" stop-color="#ffffff"></stop></linearGradient><filter id="editing-outline" x="-100%" y="-100%" width="300%" height="300%"><feMorphology in="SourceGraphic" operator="dilate" radius="1" result="outline"></feMorphology><feComposite operator="out" in="outline" in2="SourceAlpha"></feComposite></filter></defs><g filter="url(#editing-outline)"><g transform="translate(106.00001239776611, 104.63500022888184)"><path d="M11.52 0L8.45 0L8.45-45.50L8.45-45.50Q13.76-46.02 18.75-46.02L18.75-46.02L18.75-46.02Q25.47-46.02 29.54-42.88L29.54-42.88L29.54-42.88Q33.60-39.74 33.60-33.44L33.60-33.44L33.60-33.44Q33.60-27.14 28.06-23.07L28.06-23.07L28.06-23.07Q22.53-19.01 14.85-19.01L14.85-19.01L14.85-19.01Q14.53-19.01 14.14-19.01L14.14-19.01L14.14-21.12L14.14-21.12Q14.40-21.12 14.59-21.12L14.59-21.12L14.59-21.12Q20.93-21.12 25.60-24.45L25.60-24.45L25.60-24.45Q30.27-27.78 30.27-33.12L30.27-33.12L30.27-33.12Q30.27-38.46 27.01-40.86L27.01-40.86L27.01-40.86Q23.74-43.26 18.24-43.26L18.24-43.26L18.24-43.26Q15.36-43.26 11.52-43.01L11.52-43.01L11.52 0ZM47.81 0L44.86 0L44.86-41.34L44.86-41.34Q50.37-41.79 54.21-41.79L54.21-41.79L54.21-41.79Q60.10-41.79 63.94-38.75L63.94-38.75L63.94-38.75Q67.78-35.71 67.78-30.08L67.78-30.08L67.78-30.08Q67.78-26.30 65.60-23.10L65.60-23.10L65.60-23.10Q63.42-19.90 60.67-17.92L60.67-17.92L60.67-17.92Q68.29-7.81 70.08-5.82L70.08-5.82L70.08-5.82Q73.73-2.05 78.02-1.54L78.02-1.54L77.95 0.45L77.95 0.45Q74.37 0.38 72.13-0.61L72.13-0.61L72.13-0.61Q69.89-1.60 67.68-3.97L67.68-3.97L67.68-3.97Q65.47-6.34 57.98-16.70L57.98-16.70L57.98-16.70Q52.80-16.70 47.81-17.02L47.81-17.02L47.81 0ZM56.38-19.14L56.38-19.14L56.38-19.14Q58.88-19.14 61.76-22.46L61.76-22.46L61.76-22.46Q64.64-25.79 64.64-30.21L64.64-30.21L64.64-30.21Q64.64-34.62 61.63-36.93L61.63-36.93L61.63-36.93Q58.62-39.23 53.82-39.23L53.82-39.23L53.82-39.23Q51.26-39.23 47.81-38.98L47.81-38.98L47.81-19.46L47.81-19.46Q52.42-19.14 56.38-19.14ZM100.61 0.64L100.61 0.64L100.61 0.64Q91.71 0.64 85.70-5.57L85.70-5.57L85.70-5.57Q79.68-11.78 79.68-20.77L79.68-20.77L79.68-20.77Q79.68-29.76 85.70-35.97L85.70-35.97L85.70-35.97Q91.71-42.18 100.61-42.18L100.61-42.18L100.61-42.18Q109.50-42.18 115.52-35.97L115.52-35.97L115.52-35.97Q121.54-29.76 121.54-20.77L121.54-20.77L121.54-20.77Q121.54-11.78 115.52-5.57L115.52-5.57L115.52-5.57Q109.50 0.64 100.61 0.64ZM100.64-39.55L100.64-39.55L100.64-39.55Q92.93-39.55 87.84-34.11L87.84-34.11L87.84-34.11Q82.75-28.67 82.75-20.77L82.75-20.77L82.75-20.77Q82.75-12.86 87.84-7.46L87.84-7.46L87.84-7.46Q92.93-2.05 100.64-2.05L100.64-2.05L100.64-2.05Q108.35-2.05 113.41-7.46L113.41-7.46L113.41-7.46Q118.46-12.86 118.46-20.77L118.46-20.77L118.46-20.77Q118.46-28.67 113.41-34.11L113.41-34.11L113.41-34.11Q108.35-39.55 100.64-39.55ZM134.34-4.74L134.34-4.74L134.34-41.54L137.22-41.54L137.22-6.59L137.22-6.59Q137.22-1.41 135.62 2.56L135.62 2.56L135.62 2.56Q134.02 6.53 131.90 8.70L131.90 8.70L131.90 8.70Q129.79 10.88 126.46 13.25L126.46 13.25L125.12 11.33L125.12 11.33Q134.34 4.61 134.34-4.74ZM172.61 0L152.58 0L152.58-41.54L171.97-41.54L171.97-38.98L155.52-38.98L155.52-23.87L170.37-23.87L170.37-21.38L155.52-21.38L155.52-2.69L172.61-2.69L172.61 0ZM215.74-4.10L216.70-2.05L216.70-2.05Q211.90 0.64 203.36 0.64L203.36 0.64L203.36 0.64Q194.82 0.64 188.32-5.50L188.32-5.50L188.32-5.50Q181.82-11.65 181.82-20.77L181.82-20.77L181.82-20.77Q181.82-29.89 187.49-36.03L187.49-36.03L187.49-36.03Q193.15-42.18 202.11-42.18L202.11-42.18L202.11-42.18Q209.34-42.18 216.26-39.94L216.26-39.94L215.49-37.50L215.49-37.50Q208.83-39.55 201.73-39.55L201.73-39.55L201.73-39.55Q194.62-39.55 189.79-34.14L189.79-34.14L189.79-34.14Q184.96-28.74 184.96-20.90L184.96-20.90L184.96-20.90Q184.96-13.06 190.56-7.55L190.56-7.55L190.56-7.55Q196.16-2.05 203.52-2.05L203.52-2.05L203.52-2.05Q210.88-2.05 215.74-4.10L215.74-4.10ZM234.62 0L234.62-38.91L220.54-38.91L220.54-41.54L251.58-41.54L251.58-38.91L237.50-38.91L237.50 0L234.62 0ZM268.67-39.74L268.67-39.74L268.67-39.74Q265.22-39.74 263.04-38.08L263.04-38.08L263.04-38.08Q260.86-36.42 260.86-33.41L260.86-33.41L260.86-33.41Q260.86-29.95 263.74-27.20L263.74-27.20L263.74-27.20Q265.79-25.22 269.02-23.01L269.02-23.01L269.02-23.01Q272.26-20.80 273.47-19.84L273.47-19.84L273.47-19.84Q274.69-18.88 276.42-17.22L276.42-17.22L276.42-17.22Q279.55-14.08 279.55-9.98L279.55-9.98L279.55-9.98Q279.55-4.67 276-1.95L276-1.95L276-1.95Q272.45 0.77 266.08 0.77L266.08 0.77L266.08 0.77Q259.71 0.77 255.42-2.56L255.42-2.56L256.96-4.80L256.96-4.80Q261.31-1.86 266.18-1.86L266.18-1.86L266.18-1.86Q271.04-1.86 273.76-3.90L273.76-3.90L273.76-3.90Q276.48-5.95 276.48-9.66L276.48-9.66L276.48-9.66Q276.48-12.86 273.73-15.55L273.73-15.55L273.73-15.55Q271.81-17.47 268.58-19.71L268.58-19.71L268.58-19.71Q265.34-21.95 264.06-22.94L264.06-22.94L264.06-22.94Q262.78-23.94 261.06-25.60L261.06-25.60L261.06-25.60Q257.79-28.86 257.79-33.15L257.79-33.15L257.79-33.15Q257.79-37.44 260.83-39.87L260.83-39.87L260.83-39.87Q263.87-42.30 269.25-42.30L269.25-42.30L269.25-42.30Q274.62-42.30 278.91-40.19L278.91-40.19L277.82-37.82L277.82-37.82Q273.86-39.74 268.67-39.74Z" fill="url(#editing-outline-gradient)"></path></g></g><style>text {
  font-size: 64px;
  font-family: Arial Black;
  dominant-baseline: central;
  text-anchor: middle;
}</style></svg>